<?xml version="1.0" encoding="UTF-8" standalone="no"?>
<svg
   xmlns:dc="http://purl.org/dc/elements/1.1/"
   xmlns:cc="http://creativecommons.org/ns#"
   xmlns:rdf="http://www.w3.org/1999/02/22-rdf-syntax-ns#"
   xmlns:svg="http://www.w3.org/2000/svg"
   xmlns="http://www.w3.org/2000/svg"
   xmlns:xlink="http://www.w3.org/1999/xlink"
   xmlns:sodipodi="http://sodipodi.sourceforge.net/DTD/sodipodi-0.dtd"
   xmlns:inkscape="http://www.inkscape.org/namespaces/inkscape"
   sodipodi:docname="chessBackground.svg"
   inkscape:version="1.0rc1 (09960d6, 2020-04-09)"
   id="svg8"
   version="1.1"
   viewBox="0 0 381.00001 238.12501"
   height="900"
   width="1440"
   inkscape:export-filename="/Users/wbao23/Desktop/chessBackground.png"
   inkscape:export-xdpi="96"
   inkscape:export-ydpi="96">
  <defs
     id="defs2">
    <linearGradient
       inkscape:collect="always"
       id="linearGradient1140">
      <stop
         style="stop-color:#bf8b40;stop-opacity:1"
         offset="0"
         id="stop1136" />
      <stop
         style="stop-color:#000000;stop-opacity:0"
         offset="1"
         id="stop1138" />
    </linearGradient>
    <linearGradient
       inkscape:collect="always"
       id="linearGradient1134">
      <stop
         style="stop-color:#40bf40;stop-opacity:1"
         offset="0"
         id="stop1130" />
      <stop
         style="stop-color:#000000;stop-opacity:0"
         offset="1"
         id="stop1132" />
    </linearGradient>
    <linearGradient
       inkscape:collect="always"
       id="linearGradient1128">
      <stop
         style="stop-color:#bf8b40;stop-opacity:1"
         offset="0"
         id="stop1124" />
      <stop
         style="stop-color:#000000;stop-opacity:0"
         offset="1"
         id="stop1126" />
    </linearGradient>
    <linearGradient
       inkscape:collect="always"
       id="linearGradient1114">
      <stop
         style="stop-color:#40bf40;stop-opacity:1"
         offset="0"
         id="stop1110" />
      <stop
         style="stop-color:#000000;stop-opacity:0"
         offset="1"
         id="stop1112" />
    </linearGradient>
    <linearGradient
       inkscape:collect="always"
       id="linearGradient1108">
      <stop
         style="stop-color:#40bf40;stop-opacity:1"
         offset="0"
         id="stop1104" />
      <stop
         style="stop-color:#000000;stop-opacity:0"
         offset="1"
         id="stop1106" />
    </linearGradient>
    <linearGradient
       id="linearGradient1096"
       inkscape:collect="always">
      <stop
         id="stop1092"
         offset="0"
         style="stop-color:#bf8b40;stop-opacity:1" />
      <stop
         id="stop1094"
         offset="1"
         style="stop-color:#000000;stop-opacity:0" />
    </linearGradient>
    <linearGradient
       inkscape:collect="always"
       id="linearGradient1088">
      <stop
         style="stop-color:#bf8a40;stop-opacity:1"
         offset="0"
         id="stop1084" />
      <stop
         style="stop-color:#000000;stop-opacity:0;"
         offset="1"
         id="stop1086" />
    </linearGradient>
    <linearGradient
       gradientTransform="matrix(0.87999998,0,0,0.99999998,116.41667,6.0742186e-7)"
       gradientUnits="userSpaceOnUse"
       y2="238.125"
       x2="1.9919655e-06"
       y1="190.5"
       x1="1.9919655e-06"
       id="linearGradient856-8"
       xlink:href="#linearGradient1128"
       inkscape:collect="always" />
    <linearGradient
       gradientTransform="matrix(0.87999998,0,0,0.99999998,232.83333,5.2299805e-6)"
       gradientUnits="userSpaceOnUse"
       y2="238.125"
       x2="1.5347568e-05"
       y1="190.5"
       x1="1.5347568e-05"
       id="linearGradient856-7"
       xlink:href="#linearGradient1140"
       inkscape:collect="always" />
    <linearGradient
       gradientTransform="matrix(0.47999999,0,0,0.99999998,349.25001,5.743164e-6)"
       gradientUnits="userSpaceOnUse"
       y2="238.125"
       x2="4.2744956e-05"
       y1="190.5"
       x1="-2.0833333e-05"
       id="linearGradient856-4"
       xlink:href="#linearGradient1096"
       inkscape:collect="always" />
    <linearGradient
       gradientTransform="matrix(0.87999998,0,0,0.99999998,58.208334,4.2095703e-6)"
       gradientUnits="userSpaceOnUse"
       y2="238.125"
       x2="2.1323465e-06"
       y1="190.5"
       x1="2.1323465e-06"
       id="linearGradient856-71"
       xlink:href="#linearGradient1134"
       inkscape:collect="always" />
    <linearGradient
       inkscape:collect="always"
       xlink:href="#linearGradient1114"
       id="linearGradient856-71-3"
       x1="-2.2727274e-05"
       y1="190.5"
       x2="-2.2727274e-05"
       y2="238.125"
       gradientUnits="userSpaceOnUse"
       gradientTransform="matrix(0.87999996,0,0,0.99999996,174.62502,1.4019531e-5)" />
    <linearGradient
       inkscape:collect="always"
       xlink:href="#linearGradient1108"
       id="linearGradient856-71-37"
       x1="-3.3957745e-06"
       y1="190.5"
       x2="-3.3957745e-06"
       y2="238.125"
       gradientUnits="userSpaceOnUse"
       gradientTransform="matrix(0.87999996,0,0,0.99999996,291.04169,9.7783203e-6)" />
    <linearGradient
       inkscape:collect="always"
       xlink:href="#linearGradient1088"
       id="linearGradient1090"
       x1="0"
       y1="190.5"
       x2="0"
       y2="238.125"
       gradientUnits="userSpaceOnUse" />
  </defs>
  <sodipodi:namedview
     inkscape:window-maximized="0"
     inkscape:window-y="0"
     inkscape:window-x="0"
     inkscape:window-height="900"
     inkscape:window-width="1440"
     inkscape:pagecheckerboard="true"
     units="px"
     showgrid="false"
     inkscape:document-rotation="0"
     inkscape:current-layer="layer1"
     inkscape:document-units="px"
     inkscape:cy="422.81143"
     inkscape:cx="782.00852"
     inkscape:zoom="0.59170847"
     inkscape:pageshadow="2"
     inkscape:pageopacity="0.0"
     borderopacity="1.0"
     bordercolor="#666666"
     pagecolor="#ffffff"
     id="base"
     showguides="false" />
  <metadata
     id="metadata5">
    <rdf:RDF>
      <cc:Work
         rdf:about="">
        <dc:format>image/svg+xml</dc:format>
        <dc:type
           rdf:resource="http://purl.org/dc/dcmitype/StillImage" />
        <dc:title />
      </cc:Work>
    </rdf:RDF>
  </metadata>
  <g
     id="layer1"
     inkscape:groupmode="layer"
     inkscape:label="Layer 1">
    <rect
       style="fill:#b7d8f0;fill-opacity:1;stroke:none;stroke-width:7.26961;stroke-linecap:square;stroke-linejoin:miter;stroke-miterlimit:4;stroke-dasharray:none;stroke-opacity:0"
       id="rect904"
       height="238.12502"
       x="0"
       y="0"
       width="381" />
    <path
       sodipodi:nodetypes="ccccsccccccccccccsccccscccccccccccccccccccccccccccsccccsccccccccccccscccc"
       inkscape:connector-curvature="0"
       d="M 29.103997,190.49992 H 8.0992303 v -5.20779 c 0.066024,-1.54976 1.0415731,-2.26141 1.0415731,-2.26141 0,0 -0.347202,-0.45908 -0.347202,-0.65871 v -3.84934 c 0.02166,-2.07938 6.1188346,-5.78258 7.2884846,-8.0569 0.303401,-0.90973 -0.127361,-4.46398 0.0026,-5.11378 0,-0.95304 2.091285,-0.93973 2.589468,-1.61119 4.538289,-10.75574 3.36763,-30.52661 3.36763,-30.52661 0,0 -7.86425,0.073 -7.92099,-2.77749 0.01418,-1.7018 3.355774,-2.43031 3.355774,-2.43031 0.02836,-2.16981 2.947929,-2.08311 2.947929,-2.08311 v -1.76173 c 0,0 -1.455955,-0.82353 -1.470135,-2.05732 0.05673,-0.66654 1.304333,-1.22998 1.19088,-1.65543 l -5.703163,-13.59162 c 0,0 -0.6631,-1.4179 0.774651,-1.4179 h 7.117319 c 0.28749,-0.0327 0.173591,-0.34719 0.173591,-0.34719 l -0.361459,-1.01245 c -0.06534,-0.30059 0.233112,-0.28949 0.233112,-0.28949 h 1.864282 c 0.294047,0 0.306117,-0.0905 0.260387,-0.26039 l -0.514284,-1.12417 c 0,0 -0.109181,-0.1833 0.01496,-0.35318 l 2.08029,-2.132612 c 0.15028,-0.196001 -0.105436,-0.209081 -0.105436,-0.209081 H 22.160446 C 21.409092,99.658447 21.466042,98.84275 21.466042,98.84275 v -4.860606 c -0.0015,-0.733304 0.694404,-0.694374 0.694404,-0.694374 h 4.25303 c 0.201988,0.01554 0.170238,-0.152281 0.170238,-0.152281 L 25.988815,90.25322 c -0.04477,-0.412912 0.511457,-0.610905 0.511457,-0.610905 l 2.603895,-0.772211 2.603715,0.772211 c 0,0 0.556229,0.197993 0.511456,0.610905 l -0.594899,2.882269 c 0,0 -0.03175,0.167821 0.170238,0.152281 h 4.253031 c 0,0 0.695925,-0.03893 0.694402,0.694374 v 4.860606 c 0,0 0.05695,0.815696 -0.694402,0.867967 h -3.819047 c 0,0 -0.255715,0.01308 -0.105435,0.209081 l 2.080289,2.132612 c 0.124141,0.16988 0.01496,0.35318 0.01496,0.35318 l -0.514283,1.12417 c -0.04573,0.16988 -0.03365,0.26039 0.260385,0.26039 h 1.864283 c 0,0 0.298453,-0.0111 0.233112,0.28949 l -0.361458,1.01245 c 0,0 -0.113899,0.31452 0.173591,0.34719 h 7.11732 c 1.437751,0 0.774651,1.4179 0.774651,1.4179 l -5.703164,13.59162 c -0.113454,0.42545 1.134154,0.98889 1.19088,1.65543 -0.01418,1.2338 -1.470137,2.05732 -1.470137,2.05732 v 1.76173 c 0,0 2.919567,-0.0867 2.947929,2.08311 0,0 3.341597,0.72851 3.355776,2.43031 -0.05675,2.85048 -7.920991,2.77749 -7.920991,2.77749 0,0 -1.170659,19.77087 3.36763,30.52661 0.498183,0.67146 2.58947,0.65815 2.58947,1.61119 0.12996,0.6498 -0.300803,4.20405 0.0026,5.11378 1.169648,2.27432 7.266822,5.97752 7.28848,8.0569 v 3.84934 c 0,0.19963 -0.347199,0.65871 -0.347199,0.65871 0,0 0.975545,0.71165 1.041569,2.26141 v 5.20779 H 29.104181"
       style="fill:#ffffff;stroke:#000000;stroke-width:0;stroke-linecap:butt;stroke-linejoin:round;stroke-miterlimit:4;stroke-dasharray:none;stroke-opacity:1;fill-opacity:1"
       id="path136-2" />
    <path
       id="path136-2-7-5-9-3-3"
       style="fill:#ffffff;stroke:#000000;stroke-width:0;stroke-linecap:round;stroke-linejoin:round;stroke-miterlimit:4;stroke-dasharray:none;stroke-opacity:1;fill-opacity:1"
       d="m 145.52094,190.49991 h 18.01393 v -5.20779 c -0.066,-1.54975 -1.04158,-2.26142 -1.04158,-2.26142 0,0 0.34721,-0.45907 0.34721,-0.65869 v -3.84936 c -0.0216,-2.07937 -2.87733,-2.34312 -4.04697,-4.61744 -1.64394,-3.24949 -3.86024,-27.83049 -3.86024,-27.83049 -0.0624,-0.88189 0.11495,-1.04747 0.75106,-1.21162 0,0 2.04211,-0.33839 2.50889,-1.36786 l 1.21515,-9.72123 h -6.42295 v 3.47188 h -3.47186 v -3.47188 h -3.99264 m 0,56.7259 h -18.01393 v -5.20779 c 0.0661,-1.54975 1.04157,-2.26141 1.04157,-2.26141 0,0 -0.3472,-0.45908 -0.3472,-0.6587 v -3.84935 c 0.0216,-2.07938 2.87732,-2.34313 4.04698,-4.61745 1.64392,-3.24949 3.86023,-27.83049 3.86023,-27.83049 0.0624,-0.88189 -0.11495,-1.04747 -0.75105,-1.21162 0,0 -2.04213,-0.33839 -2.5089,-1.36786 l -1.21515,-9.72123 h 6.42294 v 3.47188 h 3.47187 v -3.47188 h 3.99264"
       inkscape:connector-curvature="0"
       sodipodi:nodetypes="ccccscccccccccccccccsccccccccccc" />
    <path
       d="m 87.311176,98.008816 c 0,0 2.391106,0.0012 2.391076,2.391144 -1e-5,1.11692 -0.52224,1.71208 -1.07857,2.02923 l 0.72866,1.22193 c 0.18658,-0.13086 0.37578,-0.2873 0.56273,-0.47426 2.60107,2.60107 5.2078,0 5.2078,0 2.5699,2.5699 5.207788,0 5.207788,0 l 1.64254,2.26243 c 0,0 -6.812838,8.19271 -5.703118,15.00952 -0.11347,0.42544 1.13412,0.98888 1.19087,1.65542 -0.0141,1.2338 -1.47013,2.05732 -1.47013,2.05732 v 1.76174 c 0,0 2.91958,-0.0867 2.94793,2.08311 0,0 3.341598,0.72851 3.355768,2.4303 -0.0568,2.85049 -7.920988,2.77749 -7.920988,2.77749 0,0 -1.17066,19.77088 3.36762,30.5266 0.4982,0.67147 2.589478,0.65815 2.589478,1.6112 0.12996,0.64979 -0.3008,4.20404 0.004,5.11377 1.16964,2.27432 7.26683,5.97752 7.28848,8.0569 v 3.84935 c 0,0.19962 -0.3472,0.6587 -0.3472,0.6587 0,0 0.97556,0.71166 1.04157,2.26141 v 5.20779 H 87.312716 m -1.6e-4,-92.491094 c 0,0 -2.3911,0.0012 -2.39107,2.391144 1e-5,1.11692 0.52223,1.71208 1.07856,2.02923 l -0.72866,1.22193 c -0.18657,-0.13086 -0.37577,-0.2873 -0.56273,-0.47426 -2.60107,2.60107 -5.20779,0 -5.20779,0 -2.5699,2.5699 -5.2078,0 -5.2078,0 l -1.64253,2.26243 c 0,0 6.81283,8.19271 5.70312,15.00952 0.11346,0.42544 -1.13412,0.98888 -1.19087,1.65542 0.0141,1.2338 1.47014,2.05732 1.47014,2.05732 v 1.76174 c 0,0 -2.9196,-0.0867 -2.94794,2.08311 0,0 -3.34161,0.72851 -3.35578,2.4303 0.0567,2.85049 7.921,2.77749 7.921,2.77749 0,0 1.17066,19.77088 -3.36763,30.52661 -0.49819,0.67147 -2.58947,0.65815 -2.58947,1.6112 -0.12997,0.64979 0.30079,4.20404 -0.004,5.11377 -1.16966,2.27432 -7.26684,5.97752 -7.288492,8.0569 v 3.84934 c 0,0.19963 0.347202,0.65871 0.347202,0.65871 0,0 -0.975548,0.71166 -1.041574,2.26141 v 5.20779 h 21.004764"
       style="fill:#000000;stroke:#000000;stroke-width:0;stroke-linecap:round;stroke-linejoin:round;stroke-miterlimit:4;stroke-dasharray:none;stroke-opacity:1"
       id="path136-2-7-5-9-5"
       inkscape:connector-curvature="0" />
    <path
       id="path136-2-5-5"
       style="fill:#000000;stroke:#000000;stroke-width:0;stroke-linecap:round;stroke-linejoin:round;stroke-miterlimit:4;stroke-dasharray:none;stroke-opacity:1"
       d="m 203.72919,117.3839 c -1.05959,0 -4.33745,0.35338 -4.31813,2.47773 0.0386,1.37119 1.15005,1.76978 1.15005,1.76978 0.49355,0.20387 0.24452,0.5531 0.10504,0.81061 l -2.32984,3.46069 6.32625,11.65081 c 0.0787,0.17499 0.0657,0.28797 -0.17933,0.45423 l -1.14586,0.76442 c -0.21,0.1575 -0.31304,0.10839 -0.43553,-0.10162 l -5.59587,-11.11995 c 0,0 -3.3927,4.41642 -3.88176,7.30037 -0.72606,5.33903 3.60545,8.11976 3.60545,8.11976 0.11345,0.42545 -1.13409,0.9889 -1.19088,1.65543 0.0141,1.23379 1.47012,2.05732 1.47012,2.05732 v 1.76172 c 0,0 -2.91956,-0.0867 -2.94792,2.08312 0,0 -3.37582,0.72859 -3.35577,2.43031 0.0311,2.64629 7.92091,2.77752 7.92091,2.77752 0,0 -2.15159,15.60338 -2.74428,16.00641 -0.3082,0.30819 -2.41126,0.29011 -2.41126,0.29011 -0.36214,0.0259 -0.6052,0.27996 -0.75887,0.87914 -0.15369,0.59917 0.46073,2.942 0.15032,3.4335 -0.31042,0.43974 -5.33922,2.24715 -5.36086,4.32652 v 1.70018 c 0,0.19962 0.34719,0.65869 0.34719,0.65869 0,0 -0.97552,0.71167 -1.04157,2.26142 v 5.20779 h 16.62238 16.62242 v -5.20779 c -0.0661,-1.54975 -1.04158,-2.26142 -1.04158,-2.26142 0,0 0.34721,-0.45907 0.34721,-0.65869 v -1.70018 c -0.0216,-2.07937 -5.05045,-3.88678 -5.36086,-4.32652 -0.31042,-0.4915 0.30399,-2.83433 0.15032,-3.4335 -0.15369,-0.59918 -0.39673,-0.85326 -0.75888,-0.87914 0,0 -2.10306,0.0181 -2.41126,-0.29011 -0.59269,-0.40303 -2.74435,-16.00641 -2.74435,-16.00641 0,0 7.88976,-0.13123 7.92098,-2.77752 0.0201,-1.70172 -3.35577,-2.43031 -3.35577,-2.43031 -0.0283,-2.16977 -2.94793,-2.08312 -2.94793,-2.08312 v -1.76172 c 0,0 1.45597,-0.82353 1.47013,-2.05732 -0.0568,-0.66653 -1.30432,-1.22998 -1.19088,-1.65543 0,0 4.33152,-2.78073 3.60544,-8.11976 -0.48905,-2.88395 -1.74869,-4.24942 -4.21933,-7.91924 l -3.02259,-4.48971 c -0.13948,-0.25751 -0.38852,-0.60674 0.10505,-0.81061 0,0 1.11141,-0.39859 1.15003,-1.76978 0.0194,-2.12435 -3.25854,-2.47773 -4.31813,-2.47773"
       inkscape:connector-curvature="0"
       sodipodi:nodetypes="ccccccccccccccccscccsccscccccccsccscccsccccccscccc" />
    <path
       id="path136-2-7-5-9-5-4-4"
       style="fill:#ffffff;fill-rule:nonzero;stroke:#000000;stroke-width:0;stroke-linecap:round;stroke-linejoin:round;stroke-miterlimit:4;stroke-dasharray:none;stroke-opacity:1;fill-opacity:1"
       d="m 274.7833,174.43492 c 0,0 6.41061,2.00836 6.43221,4.08773 v 3.84935 c 0,0.19963 -0.34722,0.6587 -0.34722,0.6587 0,0 0.97547,0.71166 1.04157,2.26141 v 5.2078 l -19.97235,1e-4 -19.97254,-1e-4 v -5.2078 c 0.066,-1.54975 1.04156,-2.26141 1.04156,-2.26141 0,0 -0.3472,-0.45907 -0.3472,-0.6587 v -3.84935 c 0.0216,-2.07937 5.49059,-3.39722 6.43221,-4.08773 m 0,0 c 0.87882,-1.72628 0.25113,-3.21188 0.25113,-3.21188 -0.18832,-0.7219 -1.68335,-1.83657 -1.96583,-3.21759 -0.0942,-0.43942 0.20672,-0.6585 0.20672,-0.9096 0,-1.16132 -1.18754,-2.13788 -1.2817,-3.14225 -0.35639,-2.40255 -0.39428,-3.47037 0.0827,-5.0855 2.47287,-5.79124 7.73858,-9.24336 12.26361,-12.86387 0.56496,-0.56496 0.0724,-1.13933 0.0724,-1.13933 -2.76205,-3.60949 -2.03543,-3.18292 -5.92739,-4.31285 -1.06716,-0.18832 -3.52522,0.76716 -4.34128,0.57884 -0.62774,-0.47081 -1.07499,-1.4471 -1.07499,-1.4471 -0.53357,-0.87883 -0.66152,-1.90189 -0.66152,-1.90189 0.15694,-0.65913 1.03364,-1.40574 1.03364,-1.40574 0,0 -1.84909,-1.71207 -1.94324,-2.02594 -0.43941,-0.53357 -0.1829,-2.2948 0.41344,-3.14225 0.84746,-1.00438 1.81016,-1.47849 2.56343,-1.44709 0.7219,-0.0942 3.53368,0.60026 4.50666,0.53749 1.31826,0 5.96549,-0.89662 7.56622,-1.11634 1.06721,-0.17786 3.42387,-0.0507 5.08549,-0.41345 3.48953,-0.62286 8.62566,-1.06885 10.77457,-0.33522 1.30847,0.59783 1.36425,1.18903 1.42235,1.74097 0.0146,0.53932 -0.0827,1.40574 -0.0827,1.40574 -0.1166,0.87459 -0.60168,1.03494 -0.70287,1.61249 -0.25982,1.48271 0.3623,3.87986 0.28941,4.50665 0.11661,1.16611 -2.78535,9.79933 -2.68745,12.89978 0.45691,8.35493 2.99861,13.82259 2.77015,14.80169 -0.16319,1.077 -1.40575,1.84972 -1.40575,2.274 -0.22845,0.62009 -0.0457,1.17519 -0.37212,1.86055 0,0 -1.66251,2.27628 -1.69516,3.05956 -0.13054,0.84855 0.53191,1.84013 0.53191,1.84013"
       inkscape:connector-curvature="0"
       sodipodi:nodetypes="ccscccccccsccccccccccccccccccccccccsccccccc" />
    <path
       id="path1217-7"
       style="fill:#000000;stroke:#000000;stroke-width:0;stroke-linecap:round;stroke-linejoin:round;stroke-miterlimit:4;stroke-dasharray:none;stroke-opacity:1"
       d="m 311.86087,174.39565 -2.90616,14.95094 2.59832,0.50514 c 1.18081,0.22956 1.39477,0.42987 1.82542,-0.22128 0,0 0.95993,0.77645 1.58348,0.68131 1.84044,-0.38384 4.39674,-2.49084 6.5458,-4.51721 0.54168,-0.21093 2.01826,-0.62101 4.40562,-0.003 0.59883,0.15503 0.80329,0.16125 0.99027,-0.31022 l 0.32319,-1.66256 c 0.0936,-0.48195 0.63656,-0.52449 0.63656,-0.52449 6.20297,-1.25218 13.95558,0.92878 13.95558,0.92878 -0.14544,1.41447 -0.54462,4.74899 0.48169,4.893 0.85899,0.14843 1.90839,-3.03479 2.15779,-4.31806 0.82146,2.09885 2.07336,4.57028 6.58946,5.49506 3.6703,0.71344 7.86694,-2.09676 8.73867,-6.58147 m -47.92575,-9.31578 2.90618,-14.95101 2.59834,0.50507 c 1.18084,0.22954 1.45425,0.1239 1.6096,0.88896 0,0 1.18091,-0.36028 1.72339,-0.0381 1.56268,1.04532 3.14357,3.9565 4.37701,6.64038 0.4232,0.39853 1.63867,1.33186 4.08367,1.65322 0.61329,0.0806 0.80522,0.15144 0.80196,0.6586 l -0.32317,1.66256 c -0.0937,0.48195 0.39376,0.72475 0.39376,0.72475 5.28222,3.48467 13.28735,4.36671 13.28735,4.36671 0.39498,-1.36595 1.27403,-4.60721 2.27955,-4.35626 0.85203,0.18417 0.6326,3.52869 0.3831,4.81196 1.54786,-1.63829 3.63442,-3.46083 8.16812,-2.62649 3.67029,0.71342 6.50862,4.8911 5.6369,9.3758"
       inkscape:connector-curvature="0"
       sodipodi:nodetypes="ccscccscsccccccccscccscscccccc" />
    <rect
       style="fill:url(#linearGradient1090);fill-opacity:1;stroke:none;stroke-width:2.78052;stroke-linecap:square;stroke-linejoin:miter;stroke-miterlimit:4;stroke-dasharray:none;stroke-opacity:1"
       id="rect23"
       width="58.208336"
       height="47.625"
       x="0"
       y="190.5"
       ry="0" />
    <rect
       ry="0"
       y="190.5"
       x="116.41667"
       height="47.625"
       width="58.208336"
       id="rect23-4"
       style="fill:url(#linearGradient856-8);stroke:none;stroke-width:2.78051;stroke-linecap:square;stroke-linejoin:miter;stroke-miterlimit:4;stroke-dasharray:none" />
    <rect
       ry="0"
       y="190.5"
       x="232.83334"
       height="47.625"
       width="58.208336"
       id="rect23-2"
       style="fill:url(#linearGradient856-7);stroke:none;stroke-width:2.78053;stroke-linecap:square;stroke-linejoin:miter;stroke-miterlimit:4;stroke-dasharray:none;fill-opacity:1.0" />
    <rect
       ry="0"
       y="190.5"
       x="349.25"
       height="47.625"
       width="31.750002"
       id="rect23-9"
       style="fill:url(#linearGradient856-4);stroke:none;stroke-width:2.05355;stroke-linecap:square;stroke-linejoin:miter;stroke-miterlimit:4;stroke-dasharray:none;fill-opacity:1.0" />
    <rect
       ry="0"
       y="190.5"
       x="58.208336"
       height="47.625"
       width="58.208336"
       id="rect23-97"
       style="fill:url(#linearGradient856-71);stroke:none;stroke-width:2.78053;stroke-linecap:square;stroke-linejoin:miter;stroke-miterlimit:4;stroke-dasharray:none;fill-opacity:1.0" />
    <rect
       style="fill:url(#linearGradient856-71-3);stroke:none;stroke-width:2.78053;stroke-linecap:square;stroke-linejoin:miter;stroke-miterlimit:4;stroke-dasharray:none"
       id="rect23-97-2"
       width="58.208336"
       height="47.625"
       x="174.62502"
       y="190.5"
       ry="0" />
    <rect
       style="fill:url(#linearGradient856-71-37);stroke:none;stroke-width:2.78053;stroke-linecap:square;stroke-linejoin:miter;stroke-miterlimit:4;stroke-dasharray:none"
       id="rect23-97-9"
       width="58.208336"
       height="47.625"
       x="291.04169"
       y="190.5"
       ry="0" />
    <path
       inkscape:connector-curvature="0"
       d="m 163.5049,21.675953 a 17.675544,17.674883 0 0 0 -17.61156,16.932457 10.586915,10.452887 0 0 0 -8.57671,-4.325943 10.586915,10.452887 0 0 0 -10.00734,7.041943 18.105159,15.204199 0 0 0 -4.07207,-0.389788 18.105159,15.204199 0 0 0 -18.10483,15.204452 18.105159,15.204199 0 0 0 5.58064,10.978755 h 80.77369 a 15.036488,15.204199 0 0 0 4.83564,-11.170024 15.036488,15.204199 0 0 0 -15.03657,-15.204452 15.036488,15.204199 0 0 0 -0.11182,6.58e-4 17.675544,17.674883 0 0 0 0.055,-1.392955 17.675544,17.674883 0 0 0 -17.67547,-17.675103 17.675544,17.674883 0 0 0 -0.0486,0 z"
       style="fill:#ffffff;fill-opacity:1;stroke-width:1.66187;stroke-linecap:square;stroke-miterlimit:4;stroke-dasharray:none;stroke-opacity:0"
       id="path984" />
    <circle
       r="28.841272"
       cy="45.385883"
       cx="310.09958"
       id="path1009"
       style="fill:#fff066;fill-opacity:1;stroke-width:1.08011;stroke-linecap:square;stroke-miterlimit:4;stroke-dasharray:none;stroke-opacity:0" />
    <path
       id="path984-6"
       d="m 267.33318,28.7015 a 22.355849,25.327457 0 0 1 22.27492,24.263586 13.390223,14.978603 0 0 1 10.84774,-6.198916 13.390223,14.978603 0 0 1 12.65718,10.090846 22.899222,21.787057 0 0 1 5.15032,-0.558553 22.899222,21.787057 0 0 1 22.8988,21.787421 22.899222,21.787057 0 0 1 -7.05833,15.73215 H 231.94206 a 19.017998,21.787057 0 0 1 -6.11607,-16.006231 19.017998,21.787057 0 0 1 19.0181,-21.78742 19.017998,21.787057 0 0 1 0.14143,9.47e-4 22.355849,25.327457 0 0 1 -0.0696,-1.996053 22.355849,25.327457 0 0 1 22.35575,-25.327772 22.355849,25.327457 0 0 1 0.0615,0 z"
       style="fill:#ffffff;fill-opacity:1;stroke-width:2.2373;stroke-linecap:square;stroke-miterlimit:4;stroke-dasharray:none;stroke-opacity:0" />
  </g>
</svg>
